<?xml version="1.0" standalone="no"?>
<!DOCTYPE svg PUBLIC "-//W3C//DTD SVG 20010904//EN"
 "http://www.w3.org/TR/2001/REC-SVG-20010904/DTD/svg10.dtd">
<svg version="1.0" xmlns="http://www.w3.org/2000/svg"
 width="500.000000pt" height="500.000000pt" viewBox="0 0 500.000000 500.000000"
 preserveAspectRatio="xMidYMid meet">
<metadata>
Created by potrace 1.14, written by Peter Selinger 2001-2017
</metadata>
<g transform="translate(0.000000,500.000000) scale(0.100000,-0.100000)"
fill="#000000" stroke="none">
<path d="M2330 4997 c-3 -2 -35 -7 -71 -11 -228 -21 -478 -83 -699 -173 -108
-45 -307 -145 -372 -189 -27 -19 -52 -34 -54 -34 -5 0 -61 -39 -80 -55 -6 -5
-22 -17 -34 -25 -102 -68 -314 -263 -414 -381 -54 -64 -196 -257 -196 -267 0
-6 -3 -12 -8 -14 -22 -9 -143 -233 -205 -379 -136 -318 -208 -701 -193 -1029
3 -80 8 -158 10 -175 2 -16 7 -57 11 -90 22 -189 97 -465 178 -655 235 -549
656 -993 1192 -1255 151 -74 310 -137 440 -174 61 -17 92 -24 205 -46 14 -3
39 -7 55 -9 17 -2 71 -10 120 -17 50 -8 177 -14 285 -14 323 0 625 57 920 175
337 134 676 368 910 628 41 46 82 91 91 100 29 30 159 210 159 221 0 5 4 11 8
13 5 2 29 37 54 79 161 266 288 620 324 903 3 23 7 52 10 66 24 138 23 438 -1
610 -4 25 -7 52 -7 60 -1 65 -90 414 -129 505 -7 17 -13 32 -13 35 -5 31 -120
273 -172 360 -146 248 -395 537 -581 677 -21 15 -42 33 -48 40 -28 32 -287
193 -415 256 -208 104 -469 194 -644 221 -21 4 -48 8 -60 11 -12 2 -41 7 -66
10 -25 3 -56 8 -70 11 -33 7 -434 18 -440 11z m-804 -1435 c-3 -9 -10 -36 -17
-59 -7 -24 -15 -43 -19 -43 -4 0 -6 -11 -5 -25 3 -19 -9 -35 -53 -72 -49 -42
-55 -45 -49 -23 4 14 12 61 18 105 15 104 22 117 62 113 18 -2 31 1 30 7 -1 6
7 12 18 12 14 1 19 -3 15 -15z"/>
</g>
</svg>
